<?xml version="1.0" encoding="utf-8"?>
<!-- Generator: Adobe Illustrator 22.0.0, SVG Export Plug-In . SVG Version: 6.00 Build 0)  -->
<svg version="1.1" id="Layer_1" xmlns="http://www.w3.org/2000/svg" xmlns:xlink="http://www.w3.org/1999/xlink" x="0px" y="0px"
	 viewBox="0 0 1920 1089" style="enable-background:new 0 0 1920 1089;" xml:space="preserve">
<style type="text/css">
	.st0{fill:#E093BE;}
	.st1{}
	.st2{font-size:63.5213px;}
	.st3{enable-background:new    ;}
	.st4{font-size:91.4706px;}
</style>
<text transform="matrix(1 0 0 1 677.6504 576.373)" class="st0 st1 st2">Кліпер</text>
<text transform="matrix(1 0 0 1 874.6289 576.373)" class="st0 st1 st2"> </text>
<text transform="matrix(1 0 0 1 243.166 523.7773)" class="st0 st1 st2">Філлер</text>
<text transform="matrix(1 0 0 1 607.6809 844.3691)" class="st0 st1 st2">Гоммаж</text>
<text transform="matrix(1 0 0 1 1273.3457 375.0293)" class="st3"><tspan x="0" y="0" class="st0 st1 st2">Ексфоліант </tspan><tspan x="-26.7" y="64" class="st0 st1 st2">(ексфоліатор)</tspan></text>
<text transform="matrix(1 0 0 1 802.1523 393.0508)" class="st0 st1 st2">Гідролат</text>
<text transform="matrix(1 0 0 1 1137.3578 278.2676)" class="st0 st1 st2">Убтан</text>
<text transform="matrix(1 0 0 1 640.6816 719.3594)" class="st0 st1 st2">Шиммер</text>
<text transform="matrix(1 0 0 1 592.2773 393.1152)" class="st0 st1 st2">Міст</text>
<text transform="matrix(1 0 0 1 798.1602 278.3301)" class="st0 st1 st2">Кумарин</text>
<text transform="matrix(1 0 0 1 1397.0835 569.2305)" class="st3"><tspan x="0" y="0" class="st0 st1 st2">Нерол</tspan><tspan x="-24" y="64" class="st0 st1 st2">(Неролі)</tspan></text>
<text transform="matrix(1 0 0 1 1603.918 614.2305)" class="st0 st1 st2"> </text>
<text transform="matrix(1 0 0 1 977.3254 502.6895)" class="st0 st1 st2">Бельді</text>
<text transform="matrix(1 0 0 1 374.9727 730.0957)" class="st0 st1 st2">Пінас</text>
<text transform="matrix(1 0 0 1 931.7988 844.4336)" class="st0 st1 st2">Лібурна</text>
<text transform="matrix(1 0 0 1 1197.9078 715.168)" class="st0 st1 st2">Редан</text>
<text transform="matrix(1 0 0 1 910.5762 626.3301)" class="st0 st1 st4" style="font-size: 80px">Беффруа</text>
<text transform="matrix(1 0 0 1 491.0391 473.1055)" class="st0 st1 st2">Донжон</text>
<text transform="matrix(1 0 0 1 355.4957 318.2383)" class="st0 st1 st2">Горжа</text>
<text transform="matrix(1 0 0 1 407.7457 617.9336)" class="st0 st1 st2">Редюїт</text>
</svg>
