<?xml version="1.0" encoding="utf-8"?>
<!-- Generator: Adobe Illustrator 22.0.0, SVG Export Plug-In . SVG Version: 6.00 Build 0)  -->
<svg version="1.1" id="Layer_1" xmlns="http://www.w3.org/2000/svg" xmlns:xlink="http://www.w3.org/1999/xlink" x="0px" y="0px"
	 viewBox="0 0 1920 1089" style="enable-background:new 0 0 1920 1089;" xml:space="preserve">
<style type="text/css">
	.st0{fill:none;}
	.st1{fill:#E093BE;}
	.st2{}
	.st3{font-size:24px;}
	.st4{}
	.st5{font-size:20px;}
	.st6{font-size:12px;}
	.st7{fill:#AFBB7E;}
	.st8{fill:#9891C6;}
	.st9{fill:#B0B0AF;}
	.st10{fill:#F5B1B9;}
	.st11{fill:#94D2DF;}
	.st12{fill:#F08B92;}
	.st13{fill:#74B5E4;}
	.st14{fill:#D2BB9B;}
	.st15{fill:#BCD2EE;}
	.st16{fill:#8DCAB3;}
	.st17{fill:#C096C4;}
	.st18{fill:#F5A257;}
	.st19{fill:#F2967F;}
	.st20{fill:#BBA7AA;}
	.st21{fill:#C6C053;}
</style>
<rect x="66" y="72.6" class="st0" width="175" height="1081.4"/>
<text transform="matrix(1 0 0 1 66 89.6338)"><tspan x="0" y="0" class="st1 st2 st3">ОБЛИЧЧЯ</tspan><tspan x="0" y="24" class="st1 st4 st5">Косметика (тон </tspan><tspan x="0" y="48" class="st1 st4 st5">шкіри)</tspan><tspan x="0" y="62.4" class="st1 st4 st6">Рум’яна</tspan><tspan x="0" y="76.8" class="st1 st4 st6">Пудра для обличчя</tspan><tspan x="0" y="91.2" class="st1 st4 st6">BB-крем</tspan><tspan x="0" y="105.6" class="st1 st4 st6">База під макіяж</tspan><tspan x="0" y="120" class="st1 st4 st6">Консилер</tspan><tspan x="0" y="134.4" class="st1 st4 st6">CC-крем</tspan><tspan x="0" y="148.8" class="st1 st4 st6">Хайлайтер</tspan><tspan x="0" y="163.2" class="st1 st4 st6">Тонер для обличчя</tspan><tspan x="0" y="177.6" class="st1 st4 st6">Кушон</tspan><tspan x="0" y="192" class="st1 st4 st6">Коректор для обличчя</tspan><tspan x="0" y="206.4" class="st1 st4 st6">Пігмент для обличчя</tspan><tspan x="0" y="220.8" class="st1 st4 st6">Крем-фарба для обличчя</tspan><tspan x="0" y="235.2" class="st1 st4 st6">Бронзер</tspan><tspan x="0" y="249.6" class="st1 st4 st6">Тональний флюїд</tspan><tspan x="0" y="264" class="st1 st4 st6">Праймер для обличчя</tspan><tspan x="0" y="278.4" class="st1 st4 st6">Тональна основа</tspan><tspan x="0" y="292.8" class="st1 st4 st6">Фіксатор макіяжу</tspan><tspan x="0" y="307.2" class="st1 st4 st6">Основа під макіяж</tspan><tspan x="0" y="321.6" class="st1 st4 st6">Ілюмінатор для обличчя</tspan><tspan x="0" y="336" class="st1 st4 st6">Палетка для макіяжу</tspan><tspan x="0" y="350.4" class="st1 st4 st6">Тональний крем</tspan><tspan x="0" y="364.8" class="st1 st4 st6">Олівець для обличчя</tspan><tspan x="0" y="379.2" class="st1 st4 st6">Автозасмага для обличчя</tspan><tspan x="0" y="393.6" class="st1 st4 st6">Тональний мус</tspan><tspan x="0" y="408" class="st1 st4 st6">Шиммер для обличчя</tspan><tspan x="0" y="422.4" class="st1 st4 st6">Стік для обличчя</tspan><tspan x="0" y="436.8" class="st1 st4 st6">Філлер для обличчя</tspan><tspan x="0" y="475.2" class="st1 st4 st5">Крем</tspan><tspan x="0" y="489.6" class="st1 st4 st6">Крем для обличчя</tspan><tspan x="0" y="504" class="st1 st4 st6">Сироватка для обличчя</tspan><tspan x="0" y="518.4" class="st1 st4 st6">Вершки для обличчя</tspan><tspan x="0" y="532.8" class="st1 st4 st6">Крем-бальзам для обличчя</tspan><tspan x="0" y="547.2" class="st1 st4 st6">Бальзам для обличчя</tspan><tspan x="0" y="561.6" class="st1 st4 st6">Мус для обличчя</tspan><tspan x="0" y="576" class="st1 st4 st6">Крем-гель для обличчя</tspan><tspan x="0" y="590.4" class="st1 st4 st6">Мазь для обличчя</tspan><tspan x="0" y="604.8" class="st1 st4 st6">Флюїд для обличчя</tspan><tspan x="0" y="619.2" class="st1 st4 st6">Активатор для обличчя</tspan><tspan x="0" y="633.6" class="st1 st4 st6">Есенція для обличчя</tspan><tspan x="0" y="648" class="st1 st4 st6">Емульсія для обличчя</tspan><tspan x="0" y="662.4" class="st1 st4 st6">Еліксир для обличчя</tspan><tspan x="0" y="720" class="st7 st2 st3">ГРУДИ</tspan><tspan x="0" y="734.4" class="st7 st4 st6">Крем для сосків</tspan><tspan x="0" y="748.8" class="st7 st4 st6">Крем для бюста</tspan><tspan x="0" y="763.2" class="st7 st4 st6">Сироватка для бюста</tspan><tspan x="0" y="777.6" class="st7 st4 st6">Бальзам для сосків</tspan><tspan x="0" y="792" class="st7 st4 st6">Гель для грудей</tspan></text>
<rect x="257.2" y="94.6" class="st0" width="164.5" height="1081.4"/>
<text transform="matrix(1 0 0 1 257.2225 108.7939)"><tspan x="0" y="0" class="st1 st4 st5">Маска та олія</tspan><tspan x="0" y="14.4" class="st1 st4 st6">Маска для обличчя</tspan><tspan x="0" y="28.8" class="st1 st4 st6">Патчі для обличчя</tspan><tspan x="0" y="43.2" class="st1 st4 st6">Олія для обличчя</tspan><tspan x="0" y="57.6" class="st1 st4 st6">Грязь для обличчя</tspan><tspan x="0" y="72" class="st1 st4 st6">Гідрофільна олія</tspan><tspan x="0" y="86.4" class="st1 st4 st6">Ампули для обличчя</tspan><tspan x="0" y="100.8" class="st1 st4 st6">Глина для обличчя</tspan><tspan x="0" y="115.2" class="st1 st4 st6">Капсули для обличчя</tspan><tspan x="0" y="129.6" class="st1 st4 st6">Концентрат для обличчя</tspan><tspan x="0" y="144" class="st1 st4 st6">Краплі для обличчя</tspan><tspan x="0" y="182.4" class="st1 st4 st5">Скраб</tspan><tspan x="0" y="196.8" class="st1 st4 st6">Пілінг для обличчя</tspan><tspan x="0" y="211.2" class="st1 st4 st6">Скраб для обличчя</tspan><tspan x="0" y="225.6" class="st1 st4 st6">Гіалуронова кислота</tspan><tspan x="0" y="240" class="st1 st4 st6">Гоммаж</tspan><tspan x="0" y="254.4" class="st1 st4 st6">Ексфоліант для обличчя</tspan><tspan x="0" y="268.8" class="st1 st4 st6">Убтан</tspan><tspan x="0" y="283.2" class="st1 st4 st6">Ексфоліатор</tspan><tspan x="0" y="297.6" class="st1 st4 st6">Паста для обличчя</tspan><tspan x="0" y="312" class="st1 st4 st6">Нейтралізатор для обличчя</tspan><tspan x="0" y="350.4" class="st1 st4 st5">Вмивання</tspan><tspan x="0" y="364.8" class="st1 st4 st6">Гель для вмивання</tspan><tspan x="0" y="379.2" class="st1 st4 st6">Крем для вмивання</tspan><tspan x="0" y="393.6" class="st1 st4 st6">Молочко для обличчя</tspan><tspan x="0" y="408" class="st1 st4 st6">Гель для обличчя</tspan><tspan x="0" y="422.4" class="st1 st4 st6">Пінка для вмивання</tspan><tspan x="0" y="436.8" class="st1 st4 st6">Лосьйон для обличчя</tspan><tspan x="0" y="451.2" class="st1 st4 st6">Засоби для зняття макіяжу</tspan><tspan x="0" y="465.6" class="st1 st4 st6">Серветки для зняття макіяжу</tspan><tspan x="0" y="480" class="st1 st4 st6">Очищуюча вода для обличчя</tspan><tspan x="0" y="494.4" class="st1 st4 st6">Піна для обличчя</tspan><tspan x="0" y="508.8" class="st1 st4 st6">Тонік для обличчя</tspan><tspan x="0" y="523.2" class="st1 st4 st6">Міцелярна вода</tspan><tspan x="0" y="537.6" class="st1 st4 st6">Душистая вода</tspan><tspan x="0" y="552" class="st1 st4 st6">Термальна вода</tspan><tspan x="0" y="566.4" class="st1 st4 st6">Бальзам для зняття макіяжу</tspan><tspan x="0" y="580.8" class="st1 st4 st6">Спрей для обличчя</tspan><tspan x="0" y="595.2" class="st1 st4 st6">Желе для обличчя</tspan><tspan x="0" y="609.6" class="st1 st4 st6">Порошок для обличчя</tspan><tspan x="0" y="624" class="st1 st4 st6">Міст для обличчя</tspan></text>
<rect x="600.7" y="100.6" class="st0" width="135.5" height="1081.4"/>
<text transform="matrix(1 0 0 1 600.7115 114.7939)"><tspan x="0" y="0" class="st8 st4 st5">Для ванни</tspan><tspan x="0" y="14.4" class="st8 st4 st6">Концентрат для ванни</tspan><tspan x="0" y="28.8" class="st8 st4 st6">Бурлящі кульки</tspan><tspan x="0" y="43.2" class="st8 st4 st6">Засіб для купання</tspan><tspan x="0" y="57.6" class="st8 st4 st6">Сіль для ванни</tspan><tspan x="0" y="72" class="st8 st4 st6">Піна для ванни</tspan><tspan x="0" y="86.4" class="st8 st4 st6">Молочко для ванни</tspan><tspan x="0" y="100.8" class="st8 st4 st6">Намистинки для ванни</tspan><tspan x="0" y="115.2" class="st8 st4 st6">Перли для ванни</tspan><tspan x="0" y="129.6" class="st8 st4 st6">Олія для ванни</tspan><tspan x="0" y="144" class="st8 st4 st6">Пудра для ванни</tspan><tspan x="0" y="189.6" class="st8 st4 st5">Маска та олія</tspan><tspan x="0" y="204" class="st8 st4 st6">Маска для обличчя</tspan><tspan x="0" y="218.4" class="st8 st4 st6">Патчі для обличчя</tspan><tspan x="0" y="232.8" class="st8 st4 st6">Олія для обличчя</tspan><tspan x="0" y="247.2" class="st8 st4 st6">Грязь для обличчя</tspan><tspan x="0" y="261.6" class="st8 st4 st6">Гідрофільна олія</tspan><tspan x="0" y="276" class="st8 st4 st6">Ампули для обличчя</tspan><tspan x="0" y="290.4" class="st8 st4 st6">Глина для обличчя</tspan><tspan x="0" y="304.8" class="st8 st4 st6">Капсули для обличчя</tspan><tspan x="0" y="319.2" class="st8 st4 st6">Концентрат для обличчя</tspan><tspan x="0" y="333.6" class="st8 st4 st6">Краплі для обличчя</tspan><tspan x="0" y="372" class="st8 st4 st5">Засмага</tspan><tspan x="0" y="386.4" class="st8 st4 st6">Автозасмага для тіла</tspan><tspan x="0" y="400.8" class="st8 st4 st6">Лосьйон після засмаги</tspan><tspan x="0" y="415.2" class="st8 st4 st6">Гель після засмаги</tspan><tspan x="0" y="429.6" class="st8 st4 st6">Крем для засмаги</tspan><tspan x="0" y="444" class="st8 st4 st6">Крем сонцезахисний</tspan><tspan x="0" y="482.4" class="st8 st4 st5">Для миття</tspan><tspan x="0" y="496.8" class="st8 st4 st6">Мило</tspan><tspan x="0" y="511.2" class="st8 st4 st6">Гель для душу</tspan><tspan x="0" y="525.6" class="st8 st4 st6">Крем для душу</tspan><tspan x="0" y="540" class="st8 st4 st6">Олія для душу</tspan><tspan x="0" y="554.4" class="st8 st4 st6">Крем-гель для душу</tspan><tspan x="0" y="568.8" class="st8 st4 st6">Піна для тіла</tspan><tspan x="0" y="583.2" class="st8 st4 st6">Желе для тіла</tspan><tspan x="0" y="597.6" class="st8 st4 st6">Бельді</tspan><tspan x="0" y="643.2" class="st8 st4 st5">Інше</tspan><tspan x="0" y="657.6" class="st8 st4 st6">Присипка</tspan><tspan x="0" y="672" class="st8 st4 st6">Тальк</tspan><tspan x="0" y="686.4" class="st8 st4 st6">Пудра для тіла</tspan><tspan x="0" y="700.8" class="st8 st4 st6">Стік для тіла</tspan></text>
<rect x="438" y="72.6" class="st0" width="146.5" height="899.4"/>
<text transform="matrix(1 0 0 1 437.967 89.6338)"><tspan x="0" y="0" class="st8 st2 st3">ТІЛО</tspan><tspan x="0" y="24" class="st8 st4 st5">Крем або маска</tspan><tspan x="0" y="38.4" class="st8 st4 st6">Маска для тіла</tspan><tspan x="0" y="52.8" class="st8 st4 st6">Лосьйон для тіла</tspan><tspan x="0" y="67.2" class="st8 st4 st6">Олія для тіла</tspan><tspan x="0" y="81.6" class="st8 st4 st6">Спрей для тіла</tspan><tspan x="0" y="96" class="st8 st4 st6">Молочко для тіла</tspan><tspan x="0" y="110.4" class="st8 st4 st6">Крем-гель для тіла</tspan><tspan x="0" y="124.8" class="st8 st4 st6">Бальзам для тіла</tspan><tspan x="0" y="139.2" class="st8 st4 st6">Сироватка для тіла</tspan><tspan x="0" y="153.6" class="st8 st4 st6">Мус для тіла</tspan><tspan x="0" y="168" class="st8 st4 st6">Грязь для тіла</tspan><tspan x="0" y="182.4" class="st8 st4 st6">Олія для масажу</tspan><tspan x="0" y="196.8" class="st8 st4 st6">Крем-олія для тіла</tspan><tspan x="0" y="211.2" class="st8 st4 st6">Тонік для тіла</tspan><tspan x="0" y="225.6" class="st8 st4 st6">Есенція для тіла</tspan><tspan x="0" y="240" class="st8 st4 st6">Вершки для тіла</tspan><tspan x="0" y="254.4" class="st8 st4 st6">Еліксир для тіла</tspan><tspan x="0" y="268.8" class="st8 st4 st6">Флюїд для тіла</tspan><tspan x="0" y="283.2" class="st8 st4 st6">Крем для тіла</tspan><tspan x="0" y="297.6" class="st8 st4 st6">Дитячий крем</tspan><tspan x="0" y="312" class="st8 st4 st6">Міцелярний гель</tspan><tspan x="0" y="326.4" class="st8 st4 st6">Крем-сироватка</tspan><tspan x="0" y="340.8" class="st8 st4 st6">Йогурт для тіла</tspan><tspan x="0" y="355.2" class="st8 st4 st6">Гель для тіла</tspan><tspan x="0" y="369.6" class="st8 st4 st6">Кондиціонер для тіла</tspan><tspan x="0" y="384" class="st8 st4 st6">Мазь для тіла</tspan><tspan x="0" y="398.4" class="st8 st4 st6">Крем-бальзам для тіла</tspan><tspan x="0" y="412.8" class="st8 st4 st6">Суфле для тіла</tspan><tspan x="0" y="427.2" class="st8 st4 st6">Глина для тіла</tspan><tspan x="0" y="441.6" class="st8 st4 st6">Гідролат</tspan><tspan x="0" y="456" class="st8 st4 st6">Настій для тіла</tspan><tspan x="0" y="470.4" class="st8 st4 st6">Шиммер для тіла</tspan><tspan x="0" y="484.8" class="st8 st4 st6">Капсули для тіла</tspan><tspan x="0" y="499.2" class="st8 st4 st6">Краплі для тіла</tspan><tspan x="0" y="513.6" class="st8 st4 st6">Патчі для тіла</tspan><tspan x="0" y="528" class="st8 st4 st6">Очищуюча вода для тіла</tspan><tspan x="0" y="542.4" class="st8 st4 st6">Обгортання для тіла</tspan><tspan x="0" y="556.8" class="st8 st4 st6">Свічка для масажу</tspan><tspan x="0" y="571.2" class="st8 st4 st6">Емульсія для тіла</tspan><tspan x="0" y="616.8" class="st8 st4 st5">Скраб</tspan><tspan x="0" y="631.2" class="st8 st4 st6">Пілінг для тіла</tspan><tspan x="0" y="645.6" class="st8 st4 st6">Скраб для тіла</tspan><tspan x="0" y="660" class="st8 st4 st6">Крем-скраб</tspan><tspan x="0" y="674.4" class="st8 st4 st6">Ексфоліант для тіла</tspan><tspan x="0" y="688.8" class="st8 st4 st6">Крем-пілінг</tspan><tspan x="0" y="703.2" class="st8 st4 st6">Паста для тіла</tspan><tspan x="0" y="717.6" class="st8 st4 st6">Сіль для тіла</tspan><tspan x="0" y="775.2" class="st9 st2 st3">БОРОДА</tspan><tspan x="0" y="789.6" class="st9 st4 st6">Олія для бороди</tspan><tspan x="0" y="804" class="st9 st4 st6">Сироватка для бороди</tspan><tspan x="0" y="818.4" class="st9 st4 st6">Шампунь для бороди</tspan><tspan x="0" y="832.8" class="st9 st4 st6">Бальзам для бороди</tspan><tspan x="0" y="847.2" class="st9 st4 st6">Віск для бороди</tspan><tspan x="0" y="861.6" class="st9 st4 st6">Кондиціонер для бороди</tspan></text>
<rect x="752.5" y="72.6" class="st0" width="174.5" height="1081.4"/>
<text transform="matrix(1 0 0 1 752.456 89.6338)"><tspan x="0" y="0" class="st10 st2 st3">ІНТИМНА </tspan><tspan x="0" y="28.8" class="st10 st2 st3">ГІГІЄНА</tspan><tspan x="0" y="43.2" class="st10 st4 st6">Пінка для інтимної гігієни</tspan><tspan x="0" y="57.6" class="st10 st4 st6">Гель для інтимної гігієни</tspan><tspan x="0" y="72" class="st10 st4 st6">Спрей для інтимної гігієни</tspan><tspan x="0" y="86.4" class="st10 st4 st6">Крем для інтимної гігієни</tspan><tspan x="0" y="100.8" class="st10 st4 st6">Молочко для інтимної гігієни</tspan><tspan x="0" y="115.2" class="st10 st4 st6">Олія для інтимної гігієни</tspan><tspan x="0" y="172.8" class="st11 st2 st3">НІГТІ </tspan><tspan x="0" y="187.2" class="st11 st4 st6">Наліпки для нігтів</tspan><tspan x="0" y="201.6" class="st11 st4 st6">Стрази для нігтів</tspan><tspan x="0" y="216" class="st11 st4 st6">Закріплювач лака</tspan><tspan x="0" y="230.4" class="st11 st4 st6">Пудра для нігтів</tspan><tspan x="0" y="244.8" class="st11 st4 st6">Рідина для зняття гель-лака</tspan><tspan x="0" y="259.2" class="st11 st4 st6">Засіб для видалення кутикули</tspan><tspan x="0" y="273.6" class="st11 st4 st6">Знежирювач для нігтів</tspan><tspan x="0" y="288" class="st11 st4 st6">Зміцнювач для нігтів</tspan><tspan x="0" y="302.4" class="st11 st4 st6">Основа під лак</tspan><tspan x="0" y="316.8" class="st11 st4 st6">Праймер для нігтів</tspan><tspan x="0" y="331.2" class="st11 st4 st6">Олія для нігтів</tspan><tspan x="0" y="345.6" class="st11 st4 st6">База для гель-лака</tspan><tspan x="0" y="360" class="st11 st4 st6">Гель-лак для нігтів</tspan><tspan x="0" y="374.4" class="st11 st4 st6">Лак для нігтів</tspan><tspan x="0" y="388.8" class="st11 st4 st6">Топ для гель-лака</tspan><tspan x="0" y="403.2" class="st11 st4 st6">Олія для кутикулы</tspan><tspan x="0" y="417.6" class="st11 st4 st6">Дезінфектор</tspan><tspan x="0" y="432" class="st11 st4 st6">Трафарети для нігтів</tspan><tspan x="0" y="446.4" class="st11 st4 st6">Гель-краска для нігтів</tspan><tspan x="0" y="460.8" class="st11 st4 st6">Пайетки для нігтів</tspan><tspan x="0" y="475.2" class="st11 st4 st6">Гель для нігтів</tspan><tspan x="0" y="489.6" class="st11 st4 st6">Рідина для зняття лака</tspan><tspan x="0" y="504" class="st11 st4 st6">Сушка для лака</tspan><tspan x="0" y="518.4" class="st11 st4 st6">Гель для кутикулы</tspan><tspan x="0" y="532.8" class="st11 st4 st6">Відновлювач нігтів</tspan><tspan x="0" y="547.2" class="st11 st4 st6">Відбілювач для нігтів</tspan><tspan x="0" y="561.6" class="st11 st4 st6">Олівець для нігтів</tspan><tspan x="0" y="576" class="st11 st4 st6">Крем для нігтів</tspan><tspan x="0" y="590.4" class="st11 st4 st6">Клей для нігтів</tspan><tspan x="0" y="604.8" class="st11 st4 st6">Розріджувач лаку</tspan><tspan x="0" y="619.2" class="st11 st4 st6">Засіб для зняття липкого шару</tspan><tspan x="0" y="633.6" class="st11 st4 st6">Фольга для дизайну нігтів</tspan><tspan x="0" y="648" class="st11 st4 st6">Тіпси</tspan><tspan x="0" y="662.4" class="st11 st4 st6">Догляд за кутикулой</tspan><tspan x="0" y="676.8" class="st11 st4 st6">Магнит для гель-лака</tspan><tspan x="0" y="691.2" class="st11 st4 st6">Доглядза кутикулой і нігтями</tspan><tspan x="0" y="705.6" class="st11 st4 st6">Акрил для нігтів</tspan><tspan x="0" y="720" class="st11 st4 st6">Пигмент для нігтів</tspan><tspan x="0" y="734.4" class="st11 st4 st6">Серветки для зняття лаку</tspan><tspan x="0" y="748.8" class="st11 st4 st6">Накладні нігти</tspan><tspan x="0" y="763.2" class="st11 st4 st6">Засіб против обкусування нігтів</tspan><tspan x="0" y="777.6" class="st11 st4 st6">Бондер гель</tspan><tspan x="0" y="792" class="st11 st4 st6">Фольга для зняття гель-лаку</tspan><tspan x="0" y="806.4" class="st11 st4 st6">Диск для стемпінга</tspan><tspan x="0" y="820.8" class="st11 st4 st6">Штамп для стемпінга</tspan><tspan x="0" y="835.2" class="st11 st4 st6">Бафи для нігтів</tspan></text>
<rect x="943.2" y="72.6" class="st0" width="191.5" height="819.4"/>
<text transform="matrix(1 0 0 1 943.2005 89.6338)"><tspan x="0" y="0" class="st12 st2 st3">ОЧІ</tspan><tspan x="0" y="24" class="st12 st4 st5">Косметика</tspan><tspan x="0" y="38.4" class="st12 st4 st6">Підводка для очей</tspan><tspan x="0" y="52.8" class="st12 st4 st6">Контурний олівець для очей</tspan><tspan x="0" y="67.2" class="st12 st4 st6">Олівець-тіні</tspan><tspan x="0" y="81.6" class="st12 st4 st6">Тіні для повік</tspan><tspan x="0" y="96" class="st12 st4 st6">База для повік</tspan><tspan x="0" y="110.4" class="st12 st4 st6">Праймер для повік</tspan><tspan x="0" y="124.8" class="st12 st4 st6">Пигмент для повік</tspan><tspan x="0" y="139.2" class="st12 st4 st6">Блискітки для повік</tspan><tspan x="0" y="153.6" class="st12 st4 st6">Блиск для повік</tspan><tspan x="0" y="168" class="st12 st4 st6">Наліпки для повік</tspan><tspan x="0" y="182.4" class="st12 st4 st6">Гліттер</tspan><tspan x="0" y="196.8" class="st12 st4 st6">Гель для повік</tspan><tspan x="0" y="211.2" class="st12 st4 st6">Корректор для очей</tspan><tspan x="0" y="225.6" class="st12 st4 st6">Філер для контура очей</tspan><tspan x="0" y="273.6" class="st12 st4 st5">Крем чи маска</tspan><tspan x="0" y="288" class="st12 st4 st6">Крем для очей</tspan><tspan x="0" y="302.4" class="st12 st4 st6">Сироватка для повік</tspan><tspan x="0" y="316.8" class="st12 st4 st6">Крем для повік</tspan><tspan x="0" y="331.2" class="st12 st4 st6">Гель для очей</tspan><tspan x="0" y="345.6" class="st12 st4 st6">Маска для шкіри навколо очей</tspan><tspan x="0" y="360" class="st12 st4 st6">Патчи під очі</tspan><tspan x="0" y="374.4" class="st12 st4 st6">Лосьон для зони навколо очей</tspan><tspan x="0" y="388.8" class="st12 st4 st6">Бальзам шкіри навколо очей</tspan><tspan x="0" y="403.2" class="st12 st4 st6">Емульсія для шкіри навколо очей</tspan><tspan x="0" y="441.6" class="st12 st4 st5">Інше</tspan><tspan x="0" y="456" class="st12 st4 st6">Стік для шкіри навколо очей</tspan><tspan x="0" y="470.4" class="st12 st4 st6">Демакіяж для очей</tspan><tspan x="0" y="484.8" class="st12 st4 st6">Активатор для шкіри навколо очей</tspan><tspan x="0" y="542.4" class="st13 st2 st3">НОГИ</tspan><tspan x="0" y="556.8" class="st13 st4 st6">Маска для ніг</tspan><tspan x="0" y="571.2" class="st13 st4 st6">Гель для ніг</tspan><tspan x="0" y="585.6" class="st13 st4 st6">Спрей для ніг</tspan><tspan x="0" y="600" class="st13 st4 st6">Патчи для ніг</tspan><tspan x="0" y="614.4" class="st13 st4 st6">Бальзам для ніг</tspan><tspan x="0" y="628.8" class="st13 st4 st6">Соль для ніг</tspan><tspan x="0" y="643.2" class="st13 st4 st6">Молочко для ніг</tspan><tspan x="0" y="657.6" class="st13 st4 st6">Ванна для ніг</tspan><tspan x="0" y="672" class="st13 st4 st6">Скраб для ніг</tspan><tspan x="0" y="686.4" class="st13 st4 st6">Сироватка для ніг</tspan><tspan x="0" y="700.8" class="st13 st4 st6">Олія для ніг</tspan><tspan x="0" y="715.2" class="st13 st4 st6">Пінка для ніг</tspan><tspan x="0" y="729.6" class="st13 st4 st6">Лосьон для ніг</tspan><tspan x="0" y="744" class="st13 st4 st6">Пудра для ніг</tspan><tspan x="0" y="758.4" class="st13 st4 st6">Рідкі колготки</tspan><tspan x="0" y="772.8" class="st13 st4 st6">Крем-бальзам для ніг</tspan><tspan x="0" y="787.2" class="st13 st4 st6">Паста для ніг</tspan></text>
<rect x="1150.9" y="72.6" class="st0" width="131.2" height="1081.4"/>
<text transform="matrix(1 0 0 1 1150.9454 89.6338)"><tspan x="0" y="0" class="st14 st2 st3">БРОВИ</tspan><tspan x="0" y="24" class="st14 st4 st5">Косметика</tspan><tspan x="0" y="38.4" class="st14 st4 st6">Гель для брів</tspan><tspan x="0" y="52.8" class="st14 st4 st6">Тинт для брів</tspan><tspan x="0" y="67.2" class="st14 st4 st6">Олівець для брів</tspan><tspan x="0" y="81.6" class="st14 st4 st6">Тіні для брів</tspan><tspan x="0" y="96" class="st14 st4 st6">Тушь для брів</tspan><tspan x="0" y="110.4" class="st14 st4 st6">Помада для брів</tspan><tspan x="0" y="124.8" class="st14 st4 st6">Пудра для брів</tspan><tspan x="0" y="139.2" class="st14 st4 st6">Маркер для брів</tspan><tspan x="0" y="153.6" class="st14 st4 st6">Віск для брів</tspan><tspan x="0" y="168" class="st14 st4 st6">Підводка для брів</tspan><tspan x="0" y="182.4" class="st14 st4 st6">Коректор для брів</tspan><tspan x="0" y="196.8" class="st14 st4 st6">Хна для брів</tspan><tspan x="0" y="211.2" class="st14 st4 st6">Накладні брови</tspan><tspan x="0" y="259.2" class="st14 st4 st5">Догляд</tspan><tspan x="0" y="273.6" class="st14 st4 st6">Сироватка для брів</tspan><tspan x="0" y="288" class="st14 st4 st6">Олія для брів</tspan><tspan x="0" y="302.4" class="st14 st4 st6">Мусс для брів</tspan><tspan x="0" y="360" class="st15 st2 st3">ВІЇ</tspan><tspan x="0" y="384" class="st15 st4 st5">Косметика</tspan><tspan x="0" y="398.4" class="st15 st4 st6">Тушь для вій</tspan><tspan x="0" y="412.8" class="st15 st4 st6">Накладні вії</tspan><tspan x="0" y="427.2" class="st15 st4 st6">Клей для накладних вій</tspan><tspan x="0" y="441.6" class="st15 st4 st6">Праймер для вій</tspan><tspan x="0" y="456" class="st15 st4 st6">Фарба для брів и вій</tspan><tspan x="0" y="470.4" class="st15 st4 st6">Основа під туш</tspan><tspan x="0" y="508.8" class="st15 st4 st5">Догляд</tspan><tspan x="0" y="523.2" class="st15 st4 st6">Сироватка для вій</tspan><tspan x="0" y="537.6" class="st15 st4 st6">Гель для вій</tspan><tspan x="0" y="552" class="st15 st4 st6">Бальзам для вій</tspan><tspan x="0" y="566.4" class="st15 st4 st6">Олія для вій</tspan><tspan x="0" y="624" class="st16 st2 st3">РУКИ</tspan><tspan x="0" y="638.4" class="st16 st4 st6">Крем для рук</tspan><tspan x="0" y="652.8" class="st16 st4 st6">Бальзам для рук</tspan><tspan x="0" y="667.2" class="st16 st4 st6">Пілінг для рук</tspan><tspan x="0" y="681.6" class="st16 st4 st6">Маска для рук</tspan><tspan x="0" y="696" class="st16 st4 st6">Сіль для рук</tspan><tspan x="0" y="710.4" class="st16 st4 st6">Лосьйон для рук</tspan><tspan x="0" y="724.8" class="st16 st4 st6">Сироватка для рук</tspan><tspan x="0" y="739.2" class="st16 st4 st6">Молочко для рук</tspan><tspan x="0" y="753.6" class="st16 st4 st6">Гель для рук</tspan><tspan x="0" y="768" class="st16 st4 st6">Сливки для рук</tspan><tspan x="0" y="782.4" class="st16 st4 st6">Ванна для рук</tspan><tspan x="0" y="796.8" class="st16 st4 st6">Скраб для рук</tspan><tspan x="0" y="811.2" class="st16 st4 st6">Піна для рук</tspan><tspan x="0" y="825.6" class="st16 st4 st6">Олія для рук</tspan><tspan x="0" y="840" class="st16 st4 st6">Спрей для рук</tspan><tspan x="0" y="854.4" class="st16 st4 st6">Ексфоліант для рук</tspan><tspan x="0" y="868.8" class="st16 st4 st6">Мусс для рук</tspan></text>
<rect x="1298.3" y="72.6" class="st0" width="169.5" height="1081.4"/>
<text transform="matrix(1 0 0 1 1298.3276 89.6338)"><tspan x="0" y="0" class="st17 st2 st3">ЗУБИ</tspan><tspan x="58.2" y="0" class="st17 st4 st6"> </tspan><tspan x="0" y="14.4" class="st17 st4 st6">Зубна паста</tspan><tspan x="0" y="28.8" class="st17 st4 st6">Ополіскувач для ротової </tspan><tspan x="0" y="43.2" class="st17 st4 st6">порожнини</tspan><tspan x="0" y="57.6" class="st17 st4 st6">Гель для зубів</tspan><tspan x="0" y="72" class="st17 st4 st6">Спрей для ротової порожнини</tspan><tspan x="0" y="86.4" class="st17 st4 st6">Зубна нитка</tspan><tspan x="0" y="100.8" class="st17 st4 st6">Очищувач язика</tspan><tspan x="0" y="115.2" class="st17 st4 st6">Зубний порошок</tspan><tspan x="0" y="129.6" class="st17 st4 st6">Олівець для зубів</tspan><tspan x="0" y="144" class="st17 st4 st6">Крем для фіксації зубних </tspan><tspan x="0" y="158.4" class="st17 st4 st6">протезів</tspan><tspan x="0" y="172.8" class="st17 st4 st6">Смужки для зубів</tspan><tspan x="0" y="187.2" class="st17 st4 st6">Віск для брекетів</tspan><tspan x="0" y="201.6" class="st17 st4 st6">Індикатор зубного нальоту</tspan><tspan x="0" y="216" class="st17 st4 st6">Олія для ясен</tspan><tspan x="0" y="273.6" class="st18 st2 st3">ГОЛІННЯ</tspan><tspan x="0" y="297.6" class="st18 st4 st5">Для</tspan><tspan x="0" y="312" class="st18 st4 st6">Крем для гоління</tspan><tspan x="0" y="326.4" class="st18 st4 st6">Піна для гоління</tspan><tspan x="0" y="340.8" class="st18 st4 st6">Гель для гоління</tspan><tspan x="0" y="355.2" class="st18 st4 st6">Олія для гоління</tspan><tspan x="0" y="393.6" class="st18 st4 st5">Після</tspan><tspan x="0" y="408" class="st18 st4 st6">Крем піся гоління</tspan><tspan x="0" y="422.4" class="st18 st4 st6">Бальзам піся гоління</tspan><tspan x="0" y="436.8" class="st18 st4 st6">Гель піся гоління</tspan><tspan x="0" y="451.2" class="st18 st4 st6">Емульсия піся гоління</tspan><tspan x="0" y="465.6" class="st18 st4 st6">Галуни для гоління</tspan><tspan x="0" y="480" class="st18 st4 st6">Лосьон піся гоління</tspan><tspan x="0" y="537.6" class="st19 st2 st3">ГУБИ</tspan><tspan x="0" y="561.6" class="st19 st4 st5">Догляд</tspan><tspan x="0" y="576" class="st19 st4 st6">Бальзам для губ</tspan><tspan x="0" y="590.4" class="st19 st4 st6">Крем для губ</tspan><tspan x="0" y="604.8" class="st19 st4 st6">Маска для губ</tspan><tspan x="0" y="619.2" class="st19 st4 st6">Патчі для губ</tspan><tspan x="0" y="633.6" class="st19 st4 st6">Скраб для губ</tspan><tspan x="0" y="648" class="st19 st4 st6">Олія для губ</tspan><tspan x="0" y="662.4" class="st19 st4 st6">Сироватка для губ</tspan><tspan x="0" y="676.8" class="st19 st4 st6">Гігієнічна помада</tspan><tspan x="0" y="715.2" class="st19 st4 st5">Косметика</tspan><tspan x="0" y="729.6" class="st19 st4 st6">Помада для губ</tspan><tspan x="0" y="744" class="st19 st4 st6">Блиск для губ</tspan><tspan x="0" y="758.4" class="st19 st4 st6">Контурний олівець для губ</tspan><tspan x="0" y="772.8" class="st19 st4 st6">Тінт для губ</tspan><tspan x="0" y="787.2" class="st19 st4 st6">Основа для губ</tspan><tspan x="0" y="801.6" class="st19 st4 st6">Праймер для губ</tspan><tspan x="0" y="816" class="st19 st4 st6">Лак для губ</tspan><tspan x="0" y="830.4" class="st19 st4 st6">Гель для губ</tspan></text>
<rect x="1484.1" y="72.6" class="st0" width="155.7" height="1081.4"/>
<text transform="matrix(1 0 0 1 1484.0719 89.6338)"><tspan x="0" y="0" class="st20 st2 st3">ВОЛОССЯ</tspan><tspan x="0" y="24" class="st20 st4 st5">Укладка</tspan><tspan x="0" y="38.4" class="st20 st4 st6">Лак для волосся</tspan><tspan x="0" y="52.8" class="st20 st4 st6">Засіб для завивки волосся</tspan><tspan x="0" y="67.2" class="st20 st4 st6">Гель для волосся</tspan><tspan x="0" y="81.6" class="st20 st4 st6">Піна для волосся</tspan><tspan x="0" y="96" class="st20 st4 st6">Віск для волосся</tspan><tspan x="0" y="110.4" class="st20 st4 st6">Паста для волосся</tspan><tspan x="0" y="124.8" class="st20 st4 st6">Гель-віск для волосся</tspan><tspan x="0" y="139.2" class="st20 st4 st6">Очейурь для волосся</tspan><tspan x="0" y="153.6" class="st20 st4 st6">Кристали для волосся</tspan><tspan x="0" y="168" class="st20 st4 st6">Пудра для волосся</tspan><tspan x="0" y="206.4" class="st20 st4 st5">Маска</tspan><tspan x="0" y="220.8" class="st20 st4 st6">Маска для волосся</tspan><tspan x="0" y="235.2" class="st20 st4 st6">Желе для волосся</tspan><tspan x="0" y="249.6" class="st20 st4 st6">Глина для волосся</tspan><tspan x="0" y="288" class="st20 st4 st5">Фарбування</tspan><tspan x="0" y="302.4" class="st20 st4 st6">Фарба для волосся</tspan><tspan x="0" y="316.8" class="st20 st4 st6">Хна для волосся</tspan><tspan x="0" y="331.2" class="st20 st4 st6">Окислювач для волосся</tspan><tspan x="0" y="345.6" class="st20 st4 st6">Басма для волосся</tspan><tspan x="0" y="360" class="st20 st4 st6">Проявник для волосся</tspan><tspan x="0" y="374.4" class="st20 st4 st6">Нейтралізатор для волосся</tspan><tspan x="0" y="388.8" class="st20 st4 st6">Крем-фарба для волосся</tspan><tspan x="0" y="427.2" class="st20 st4 st5">Те, що не треба </tspan><tspan x="0" y="451.2" class="st20 st4 st5">змивати </tspan><tspan x="0" y="475.2" class="st20 st4 st5">(після миття)</tspan><tspan x="0" y="489.6" class="st20 st4 st6">Спрей для волосся</tspan><tspan x="0" y="504" class="st20 st4 st6">Олія для волосся</tspan><tspan x="0" y="518.4" class="st20 st4 st6">Рідкий шовк</tspan><tspan x="0" y="532.8" class="st20 st4 st6">Еліксир для волосся</tspan><tspan x="0" y="547.2" class="st20 st4 st6">Крем для волосся</tspan><tspan x="0" y="585.6" class="st20 st4 st5">Кондиціонер</tspan><tspan x="0" y="600" class="st20 st4 st6">Кондиционер для волосся</tspan><tspan x="0" y="614.4" class="st20 st4 st6">Бальзам для волосся</tspan><tspan x="0" y="628.8" class="st20 st4 st6">Бустер для волосся</tspan><tspan x="0" y="643.2" class="st20 st4 st6">Концентрат для волосся</tspan><tspan x="0" y="657.6" class="st20 st4 st6">Эмульсия для волосся</tspan><tspan x="0" y="672" class="st4 st6">     </tspan></text>
<rect x="1656" y="72.6" class="st0" width="147" height="1081.4"/>
<text transform="matrix(1 0 0 1 1656 86.7939)"><tspan x="0" y="0" class="st20 st4 st5">Шампунь</tspan><tspan x="0" y="14.4" class="st20 st4 st6">Гель-шампунь</tspan><tspan x="0" y="28.8" class="st20 st4 st6">Шампунь</tspan><tspan x="0" y="43.2" class="st20 st4 st6">Сухий шампунь</tspan><tspan x="0" y="57.6" class="st20 st4 st6">Шампунь-кондиціонер</tspan><tspan x="0" y="72" class="st20 st4 st6">Твердий шампунь</tspan><tspan x="0" y="110.4" class="st20 st4 st5">Шкіра голови</tspan><tspan x="0" y="124.8" class="st20 st4 st6">Пілінг для шкіри голови</tspan><tspan x="0" y="139.2" class="st20 st4 st6">Засіб для шкіри голови</tspan><tspan x="0" y="153.6" class="st20 st4 st6">Скраб для шкіри голови</tspan><tspan x="0" y="168" class="st20 st4 st6">Краплі для волосся</tspan><tspan x="0" y="182.4" class="st20 st4 st6">Ампули для волосся</tspan><tspan x="0" y="220.8" class="st20 st4 st5">Інше</tspan><tspan x="0" y="235.2" class="st20 st4 st6">Есенція для волосся</tspan><tspan x="0" y="249.6" class="st20 st4 st6">Сироватка для волосся</tspan><tspan x="0" y="264" class="st20 st4 st6">Ополіскувач для волосся</tspan><tspan x="0" y="278.4" class="st20 st4 st6">Флюїд для волосся</tspan><tspan x="0" y="292.8" class="st20 st4 st6">Тонік для волосся</tspan><tspan x="0" y="307.2" class="st20 st4 st6">Мусс для волосся</tspan><tspan x="0" y="321.6" class="st20 st4 st6">Порошок для волосся</tspan><tspan x="0" y="336" class="st20 st4 st6">Молочко для волосся</tspan><tspan x="0" y="350.4" class="st20 st4 st6">Лосьйон для волосся</tspan><tspan x="0" y="364.8" class="st20 st4 st6">Кератин для волосся</tspan><tspan x="0" y="379.2" class="st20 st4 st6">Помада для волосся</tspan><tspan x="0" y="393.6" class="st20 st4 st6">Філер для волосся</tspan><tspan x="0" y="408" class="st20 st4 st6">Комплекс для волосся</tspan><tspan x="0" y="422.4" class="st20 st4 st6">Ботокс для волосся</tspan><tspan x="0" y="436.8" class="st20 st4 st6">Праймер для волосся</tspan><tspan x="0" y="451.2" class="st20 st4 st6">Тінт для волосся</tspan><tspan x="0" y="465.6" class="st20 st4 st6">Тушь для волосся</tspan><tspan x="0" y="480" class="st20 st4 st6">Суфле для волосся</tspan><tspan x="0" y="494.4" class="st20 st4 st6">Настій для волосся</tspan><tspan x="0" y="552" class="st21 st2 st3">ПАРФУМИ</tspan><tspan x="0" y="566.4" class="st21 st4 st6">Парфумована вода</tspan><tspan x="0" y="580.8" class="st21 st4 st6">Туалетна вода</tspan><tspan x="0" y="595.2" class="st21 st4 st6">Ароматична вода</tspan><tspan x="0" y="609.6" class="st21 st4 st6">Одеколон</tspan><tspan x="0" y="624" class="st21 st4 st6">Роликові парфуми</tspan><tspan x="0" y="638.4" class="st21 st4 st6">Парфуми</tspan><tspan x="0" y="652.8" class="st21 st4 st6">Масляні парфуми</tspan><tspan x="0" y="667.2" class="st21 st4 st6">Парфумована олія</tspan><tspan x="0" y="681.6" class="st21 st4 st6">Сухі парфуми</tspan></text>
</svg>
